<svg xmlns="http://www.w3.org/2000/svg" width="14" height="14" viewBox="0 0 14 14">
  <metadata><?xpacket begin="﻿" id="W5M0MpCehiHzreSzNTczkc9d"?>
<x:xmpmeta xmlns:x="adobe:ns:meta/" x:xmptk="Adobe XMP Core 5.6-c138 79.159824, 2016/09/14-01:09:01        ">
   <rdf:RDF xmlns:rdf="http://www.w3.org/1999/02/22-rdf-syntax-ns#">
      <rdf:Description rdf:about=""
            xmlns:xmp="http://ns.adobe.com/xap/1.0/">
         <xmp:CreatorTool>Adobe Photoshop CC 2017 (Windows)</xmp:CreatorTool>
      </rdf:Description>
   </rdf:RDF>
</x:xmpmeta>
                                                                                                    
                                                                                                    
                                                                                                    
                                                                                                    
                                                                                                    
                                                                                                    
                                                                                                    
                                                                                                    
                                                                                                    
                                                                                                    
                                                                                                    
                                                                                                    
                                                                                                    
                                                                                                    
                                                                                                    
                                                                                                    
                                                                                                    
                                                                                                    
                                                                                                    
                                                                                                    
                           
<?xpacket end="w"?></metadata>
<defs>
    <style>
      .cls-1 {
        fill: #fff;
        fill-rule: evenodd;
      }
    </style>
  </defs>
  <path id="人脸认证icon" class="cls-1" d="M791,293.371a1.5,1.5,0,1,1,1.5,1.377,1.442,1.442,0,0,1-1.5-1.377h0ZM798,302a4.847,4.847,0,0,1-5-4.347,0.24,0.24,0,0,1,.25-0.241h1.5a0.245,0.245,0,0,1,.253.212,3.034,3.034,0,0,0,5.988,0,0.244,0.244,0,0,1,.252-0.212h1.5a0.24,0.24,0,0,1,.251.241A4.846,4.846,0,0,1,798,302h0Zm5.5-7.256a1.382,1.382,0,1,1,1.5-1.377,1.442,1.442,0,0,1-1.5,1.377h0Zm0,0" transform="translate(-791 -290)"/>
</svg>
