<svg xmlns="http://www.w3.org/2000/svg" width="14" height="14" viewBox="0 0 14 14">
  <metadata><?xpacket begin="﻿" id="W5M0MpCehiHzreSzNTczkc9d"?>
<x:xmpmeta xmlns:x="adobe:ns:meta/" x:xmptk="Adobe XMP Core 5.6-c138 79.159824, 2016/09/14-01:09:01        ">
   <rdf:RDF xmlns:rdf="http://www.w3.org/1999/02/22-rdf-syntax-ns#">
      <rdf:Description rdf:about=""
            xmlns:xmp="http://ns.adobe.com/xap/1.0/">
         <xmp:CreatorTool>Adobe Photoshop CC 2017 (Windows)</xmp:CreatorTool>
      </rdf:Description>
   </rdf:RDF>
</x:xmpmeta>
                                                                                                    
                                                                                                    
                                                                                                    
                                                                                                    
                                                                                                    
                                                                                                    
                                                                                                    
                                                                                                    
                                                                                                    
                                                                                                    
                                                                                                    
                                                                                                    
                                                                                                    
                                                                                                    
                                                                                                    
                                                                                                    
                                                                                                    
                                                                                                    
                                                                                                    
                                                                                                    
                           
<?xpacket end="w"?></metadata>
<defs>
    <style>
      .cls-1 {
        fill: #fff;
        fill-rule: evenodd;
      }
    </style>
  </defs>
  <path id="指纹认证icon" class="cls-1" d="M792.691,263.586a9.683,9.683,0,0,1,10.541-.05,0.649,0.649,0,0,1-.071,1.156,0.709,0.709,0,0,1-.7-0.061,8.269,8.269,0,0,0-9,.042,0.7,0.7,0,0,1-.955-0.169,0.645,0.645,0,0,1,.177-0.918h0Zm7.736,10.288a0.689,0.689,0,0,1-1.373,0v-2.8a1.063,1.063,0,0,0-1.013-1.055,1.083,1.083,0,0,0-.772.283,1,1,0,0,0-.324.73v2.6a2.571,2.571,0,0,1-1.506,2.328,0.7,0.7,0,0,1-.866-0.322,0.647,0.647,0,0,1,.258-0.857,1.262,1.262,0,0,0,.737-1.143v-2.595a2.3,2.3,0,0,1,.744-1.682,2.486,2.486,0,0,1,1.777-.651,2.39,2.39,0,0,1,2.33,2.374Zm2.32-.735a0.687,0.687,0,0,1-1.373,0v-2.111a3.219,3.219,0,0,0-1.66-2.882,3.487,3.487,0,0,0-3.427,0,3.215,3.215,0,0,0-1.66,2.882v2.111a0.689,0.689,0,0,1-1.373,0v-2.111a4.531,4.531,0,0,1,2.352-4.015,4.912,4.912,0,0,1,4.792,0,4.533,4.533,0,0,1,2.352,4.015Zm1.665-2.358a0.842,0.842,0,0,1-.1.007,0.68,0.68,0,0,1-.678-0.564,5.732,5.732,0,0,0-11.268,0,0.683,0.683,0,0,1-.779.557,0.665,0.665,0,0,1-.579-0.75,7.114,7.114,0,0,1,13.984,0,0.666,0.666,0,0,1-.579.75h0Zm0,0" transform="translate(-791 -262)"/>
</svg>
