<svg xmlns="http://www.w3.org/2000/svg" width="16" height="16" viewBox="0 0 16 16">
  <metadata><?xpacket begin="﻿" id="W5M0MpCehiHzreSzNTczkc9d"?>
<x:xmpmeta xmlns:x="adobe:ns:meta/" x:xmptk="Adobe XMP Core 5.6-c138 79.159824, 2016/09/14-01:09:01        ">
   <rdf:RDF xmlns:rdf="http://www.w3.org/1999/02/22-rdf-syntax-ns#">
      <rdf:Description rdf:about=""/>
   </rdf:RDF>
</x:xmpmeta>
                                                                                                    
                                                                                                    
                                                                                                    
                                                                                                    
                                                                                                    
                                                                                                    
                                                                                                    
                                                                                                    
                                                                                                    
                                                                                                    
                                                                                                    
                                                                                                    
                                                                                                    
                                                                                                    
                                                                                                    
                                                                                                    
                                                                                                    
                                                                                                    
                                                                                                    
                                                                                                    
                           
<?xpacket end="w"?></metadata>
<defs>
    <style>
      .cls-1 {
        fill: #fff;
        fill-rule: evenodd;
      }
    </style>
  </defs>
  <path id="指静脉icon" class="cls-1" d="M79.934,4179.54H74.488v-4.46a2.26,2.26,0,0,0-4.506,0V4180l-0.159-.19a2.25,2.25,0,0,0-3.643.73,2.24,2.24,0,0,0,.431,2.42l3.566,3.8a1.185,1.185,0,0,0,.257.18,0.742,0.742,0,0,0,.293.06h9.207A2.164,2.164,0,0,0,82,4184.76v-2.98a2.152,2.152,0,0,0-2.064-2.24h0Zm0.782,5.22a1.1,1.1,0,0,1-.782.94H71.179l-3.541-3.63a1.089,1.089,0,0,1,0-1.3,0.873,0.873,0,0,1,1.123.12l1.368,1.26a0.735,0.735,0,0,0,.525.22,1.045,1.045,0,0,0,.611-0.22v-7.07a1.059,1.059,0,0,1,.965-0.83,1.018,1.018,0,0,1,.94.83v5.06a0.612,0.612,0,0,0,.574.74h6.215a1.086,1.086,0,0,1,.782.92Zm0,0" transform="translate(-66 -4172)"/>
</svg>
