<svg xmlns="http://www.w3.org/2000/svg" width="16" height="16" viewBox="0 0 16 16">
  <metadata><?xpacket begin="﻿" id="W5M0MpCehiHzreSzNTczkc9d"?>
<x:xmpmeta xmlns:x="adobe:ns:meta/" x:xmptk="Adobe XMP Core 5.6-c138 79.159824, 2016/09/14-01:09:01        ">
   <rdf:RDF xmlns:rdf="http://www.w3.org/1999/02/22-rdf-syntax-ns#">
      <rdf:Description rdf:about=""/>
   </rdf:RDF>
</x:xmpmeta>
                                                                                                    
                                                                                                    
                                                                                                    
                                                                                                    
                                                                                                    
                                                                                                    
                                                                                                    
                                                                                                    
                                                                                                    
                                                                                                    
                                                                                                    
                                                                                                    
                                                                                                    
                                                                                                    
                                                                                                    
                                                                                                    
                                                                                                    
                                                                                                    
                                                                                                    
                                                                                                    
                           
<?xpacket end="w"?></metadata>
<defs>
    <style>
      .cls-1 {
        fill: #fff;
        fill-rule: evenodd;
      }
    </style>
  </defs>
  <path id="虹膜_icon" data-name="虹膜 icon" class="cls-1" d="M3533.91,2710.39c-1.53,3.07-3.82,4.61-6.91,4.61s-5.39-1.54-6.91-4.6a0.912,0.912,0,0,1,0-.79q2.28-4.605,6.91-4.61c3.08,0,5.38,1.54,6.91,4.6A0.912,0.912,0,0,1,3533.91,2710.39Zm-6.91-4.29c-2.59,0-4.49,1.26-5.83,3.9,1.34,2.64,3.24,3.9,5.83,3.9s4.49-1.26,5.82-3.9C3531.48,2707.36,3529.59,2706.1,3527,2706.1Zm-0.07,6.6a2.7,2.7,0,1,1,2.83-2.7A2.761,2.761,0,0,1,3526.93,2712.7Zm0-4.42a1.722,1.722,0,1,0,1.8,1.72A1.755,1.755,0,0,0,3526.93,2708.28Z" transform="translate(-3519 -2702)"/>
</svg>
