<svg xmlns="http://www.w3.org/2000/svg" width="14" height="14" viewBox="0 0 14 14">
  <metadata><?xpacket begin="﻿" id="W5M0MpCehiHzreSzNTczkc9d"?>
<x:xmpmeta xmlns:x="adobe:ns:meta/" x:xmptk="Adobe XMP Core 5.6-c138 79.159824, 2016/09/14-01:09:01        ">
   <rdf:RDF xmlns:rdf="http://www.w3.org/1999/02/22-rdf-syntax-ns#">
      <rdf:Description rdf:about=""
            xmlns:xmp="http://ns.adobe.com/xap/1.0/">
         <xmp:CreatorTool>Adobe Photoshop CC 2017 (Windows)</xmp:CreatorTool>
      </rdf:Description>
   </rdf:RDF>
</x:xmpmeta>
                                                                                                    
                                                                                                    
                                                                                                    
                                                                                                    
                                                                                                    
                                                                                                    
                                                                                                    
                                                                                                    
                                                                                                    
                                                                                                    
                                                                                                    
                                                                                                    
                                                                                                    
                                                                                                    
                                                                                                    
                                                                                                    
                                                                                                    
                                                                                                    
                                                                                                    
                                                                                                    
                           
<?xpacket end="w"?></metadata>
<defs>
    <style>
      .cls-1 {
        fill: #fff;
        fill-rule: evenodd;
      }
    </style>
  </defs>
  <path id="密码认证icon" class="cls-1" d="M803.454,237.749h-8.523V234.09a0.936,0.936,0,0,1,.955-0.914h4.227a0.936,0.936,0,0,1,.954.914V235.2a0.135,0.135,0,0,0,.137.131h0.954a0.134,0.134,0,0,0,.137-0.131V234.09a2.137,2.137,0,0,0-2.182-2.09h-4.227a2.136,2.136,0,0,0-2.182,2.09v3.659h-1.159a0.534,0.534,0,0,0-.546.523v7.205a0.534,0.534,0,0,0,.546.523h10.909a0.534,0.534,0,0,0,.545-0.523v-7.205a0.534,0.534,0,0,0-.545-0.523h0Zm-0.682,7.075h-9.546v-5.9h9.546v5.9Zm0,0" transform="translate(-791 -232)"/>
</svg>
