<?xml version="1.0" encoding="UTF-8" ?>
<!DOCTYPE svg PUBLIC "-//W3C//DTD SVG 1.1//EN" "http://www.w3.org/Graphics/SVG/1.1/DTD/svg11.dtd">
<svg width="16pt" height="16pt" viewBox="0 0 16 16" version="1.1" xmlns="http://www.w3.org/2000/svg">
<g id="#d3d3d3d3">
<path fill="#ffffff" opacity="0.83" d=" M 1.94 0.00 L 16.00 0.00 L 16.00 14.05 C 13.45 10.41 14.83 5.76 14.42 1.62 C 10.27 1.21 5.53 2.71 1.94 0.00 Z" />
<path fill="#ffffff" opacity="0.83" d=" M 0.00 2.48 C 4.48 2.38 8.95 2.35 13.43 2.53 C 13.57 7.02 13.52 11.51 13.49 16.00 L 0.00 16.00 L 0.00 2.48 M 1.49 4.10 C 1.48 7.53 1.46 10.95 1.58 14.38 C 5.02 14.46 8.45 14.44 11.89 14.45 C 12.04 10.97 12.00 7.50 11.98 4.02 C 8.48 4.00 4.98 3.96 1.49 4.10 Z" />
</g>
</svg>
