<?xml version="1.0" encoding="UTF-8" ?>
<!DOCTYPE svg PUBLIC "-//W3C//DTD SVG 1.1//EN" "http://www.w3.org/Graphics/SVG/1.1/DTD/svg11.dtd">
<svg width="16pt" height="16pt" viewBox="0 0 16 16" version="1.1" xmlns="http://www.w3.org/2000/svg">
<g id="#bdbdbdbd">
<path fill="#ffffff" opacity="0.74" d=" M 0.00 0.00 L 6.22 0.00 C 5.55 2.62 10.29 2.70 9.79 0.00 L 16.00 0.00 L 16.00 6.30 C 15.47 6.50 14.42 6.91 13.90 7.11 C 13.87 9.72 13.87 12.32 13.84 14.93 C 9.96 15.10 6.07 15.08 2.18 14.95 C 2.14 12.39 2.13 9.83 2.10 7.28 C 1.58 6.99 0.53 6.42 0.00 6.13 L 0.00 0.00 M 1.70 1.40 C 1.59 2.49 1.46 3.59 1.34 4.68 C 2.01 4.81 3.34 5.07 4.00 5.21 C 4.01 7.94 4.01 10.68 4.01 13.42 C 6.63 13.45 9.25 13.46 11.87 13.57 C 12.00 10.77 12.00 7.98 12.00 5.18 C 12.64 5.08 13.93 4.88 14.57 4.78 C 14.49 3.65 14.41 2.53 14.33 1.41 C 11.82 1.14 10.35 3.52 8.10 4.00 C 5.73 3.69 4.27 1.15 1.70 1.40 Z" />
</g>
</svg>
